HIERARCHY
ROOT Hips
{
 OFFSET 0.000000 0.000000 0.000000
 CHANNELS 6 Xposition Yposition Zposition Yrotation Xrotation Zrotation
 JOINT Chest
 {
  OFFSET 0.000000 9.585900 0.002600
  CHANNELS 3 Yrotation Xrotation Zrotation
  JOINT Chest2
  {
   OFFSET 0.000000 9.601200 -0.005300
   CHANNELS 3 Yrotation Xrotation Zrotation
   JOINT Chest3
   {
    OFFSET 0.000000 9.561800 0.000000
    CHANNELS 3 Yrotation Xrotation Zrotation
    JOINT Chest4
    {
     OFFSET 0.000000 9.552100 0.000000
     CHANNELS 3 Yrotation Xrotation Zrotation
     JOINT Neck
     {
      OFFSET 0.000000 14.453000 0.000000
      CHANNELS 3 Yrotation Xrotation Zrotation
      JOINT Head
      {
       OFFSET 0.000000 8.936500 -0.011300
       CHANNELS 3 Yrotation Xrotation Zrotation
       End Site
       {
        OFFSET 0.000000 17.073600 -0.006000
       }
      }
     }
     JOINT RightCollar
     {
      OFFSET -2.921100 9.558500 0.000000
      CHANNELS 3 Yrotation Xrotation Zrotation
      JOINT RightShoulder
      {
       OFFSET -13.519700 0.000000 0.000000
       CHANNELS 3 Yrotation Xrotation Zrotation
       JOINT RightElbow
       {
        OFFSET 0.000000 -29.696600 0.000000
        CHANNELS 3 Yrotation Xrotation Zrotation
        JOINT RightWrist
        {
         OFFSET 0.000000 -24.004700 0.000000
         CHANNELS 3 Yrotation Xrotation Zrotation
         End Site
         {
          OFFSET 0.000000 -17.728500 0.000000
         }
        }
       }
      }
     }
     JOINT LeftCollar
     {
      OFFSET 2.921100 9.558500 0.000000
      CHANNELS 3 Yrotation Xrotation Zrotation
      JOINT LeftShoulder
      {
       OFFSET 13.519700 0.000000 0.000000
       CHANNELS 3 Yrotation Xrotation Zrotation
       JOINT LeftElbow
       {
        OFFSET 0.000000 -29.696600 0.000000
        CHANNELS 3 Yrotation Xrotation Zrotation
        JOINT LeftWrist
        {
         OFFSET 0.000000 -24.004700 0.000000
         CHANNELS 3 Yrotation Xrotation Zrotation
         End Site
         {
          OFFSET 0.000000 -17.728500 0.000000
         }
        }
       }
      }
     }
    }
   }
  }
 }
 JOINT RightHip
 {
  OFFSET -7.771700 -0.012900 -0.001300
  CHANNELS 3 Yrotation Xrotation Zrotation
  JOINT RightKnee
  {
   OFFSET 0.000000 -40.869800 0.001200
   CHANNELS 3 Yrotation Xrotation Zrotation
   JOINT RightAnkle
   {
    OFFSET 0.000000 -39.717900 0.002100
    CHANNELS 3 Yrotation Xrotation Zrotation
    JOINT RightToe
    {
     OFFSET 0.000000 -4.965400 11.033500
     CHANNELS 3 Yrotation Xrotation Zrotation
     End Site
     {
      OFFSET 0.000000 -1.423100 5.872300
     }
    }
   }
  }
 }
 JOINT LeftHip
 {
  OFFSET 7.771700 -0.012900 -0.001300
  CHANNELS 3 Yrotation Xrotation Zrotation
  JOINT LeftKnee
  {
   OFFSET 0.000000 -40.869800 0.001200
   CHANNELS 3 Yrotation Xrotation Zrotation
   JOINT LeftAnkle
   {
    OFFSET 0.000000 -39.717900 0.002100
    CHANNELS 3 Yrotation Xrotation Zrotation
    JOINT LeftToe
    {
     OFFSET 0.000000 -4.965400 11.033500
     CHANNELS 3 Yrotation Xrotation Zrotation
     End Site
     {
      OFFSET 0.000000 -1.423100 5.872300
     }
    }
   }
  }
 }
}
MOTION
Frames: 17
Frame Time: 0.008333
-97.944912 62.205349 18.838993 173.557283 -49.300491 -0.977784 4.582829 26.741199 1.206916 0.684047 4.540032 0.211200 1.099247 7.173861 0.363729 3.573527 21.670337 1.576261 0.592897 14.709105 3.997045 -0.332292 -8.357772 7.206978 5.722697 4.481346 4.749079 -8.277072 -6.208927 -13.507432 -93.204960 -60.294248 130.258432 0.563820 1.507597 -3.431796 -9.033166 3.455554 -0.931708 1.672517 -8.112942 14.109237 91.305420 -65.943448 -118.776348 14.161787 -2.999557 -4.491838 2.402987 -17.839614 -4.291140 -2.105549 59.613806 -5.363891 1.945078 -4.437137 10.079001 0.418639 -0.626751 0.206366 -3.794770 -13.863754 3.985613 31.943269 74.874762 34.688432 1.650753 -11.561522 -6.070957 0.253785 0.875549 0.110100
-97.942435 62.205488 18.836208 173.551243 -49.321454 -0.978471 4.594207 26.735635 1.220781 0.686495 4.520608 0.214972 1.093237 7.211486 0.358029 3.577176 21.647063 1.578581 0.606384 14.759691 3.979512 -0.303148 -8.262208 7.171439 5.746697 4.473660 4.753594 -8.264459 -6.199565 -13.505187 -93.181408 -60.304619 130.198671 0.561762 1.503237 -3.423403 -9.023608 3.458673 -0.928874 1.669527 -8.131373 14.113520 91.264121 -65.960051 -118.722193 14.122194 -3.021058 -4.465739 2.405369 -17.820090 -4.282933 -2.111354 59.621170 -5.368005 1.954538 -4.446316 10.080306 0.411172 -0.632429 0.199116 -3.799065 -13.839687 3.994334 31.934917 74.879221 34.677943 1.635061 -11.568388 -6.080229 0.260940 0.874164 0.117595
-97.940483 62.205548 18.833396 173.547446 -49.342204 -0.978188 4.604249 26.719912 1.236776 0.686679 4.529169 0.212414 1.087409 7.212451 0.356972 3.584887 21.646100 1.581600 0.633873 14.829598 3.946905 -0.291313 -8.194665 7.154665 5.789249 4.435604 4.751097 -8.277167 -6.166718 -13.493955 -93.152574 -60.300249 130.159086 0.563866 1.499443 -3.400979 -9.007720 3.429046 -0.921520 1.652798 -8.109823 14.114004 91.321727 -65.997616 -118.747548 14.158419 -3.001389 -4.464301 2.409470 -17.799595 -4.275656 -2.122574 59.628363 -5.376713 1.953766 -4.460384 10.078103 0.408650 -0.631234 0.196853 -3.800179 -13.818068 3.996239 31.968798 74.879176 34.709887 1.625987 -11.573457 -6.083144 0.264135 0.873141 0.119046
-97.939279 62.206350 18.829973 173.553144 -49.369142 -0.981313 4.602983 26.742279 1.239734 0.693344 4.513278 0.215922 1.094728 7.192495 0.361920 3.574389 21.673641 1.580882 0.650983 14.865269 3.931287 -0.265837 -8.109222 7.118005 5.799241 4.425064 4.752509 -8.255671 -6.182348 -13.482316 -93.105554 -60.300597 130.116943 0.560768 1.494052 -3.382192 -9.010986 3.433347 -0.922183 1.655039 -8.127284 14.121071 91.318950 -66.007579 -118.738211 14.164375 -2.995083 -4.454361 2.409351 -17.772690 -4.272984 -2.141840 59.637740 -5.390773 1.955523 -4.474199 10.073037 0.405170 -0.631866 0.196717 -3.806392 -13.790994 3.991391 31.985310 74.881946 34.726692 1.624261 -11.574157 -6.083944 0.266643 0.869061 0.117805
-97.938308 62.204180 18.829354 173.555447 -49.373099 -0.983842 4.611625 26.726218 1.248262 0.688289 4.522962 0.215526 1.093444 7.197289 0.361217 3.580948 21.667112 1.584766 0.665377 14.902102 3.916199 -0.240620 -8.026768 7.080595 5.795256 4.428858 4.753563 -8.193270 -6.236650 -13.456404 -93.021980 -60.320381 130.017352 0.561269 1.491217 -3.385066 -9.014610 3.413507 -0.913199 1.652858 -8.104220 14.114039 91.338700 -66.017796 -118.752490 14.177809 -2.988699 -4.451984 2.424636 -17.771467 -4.272454 -2.165666 59.647022 -5.401002 1.958416 -4.484233 10.074416 0.394698 -0.633934 0.191690 -3.810573 -13.787603 3.988008 31.958744 74.885711 34.710195 1.624431 -11.576769 -6.092716 0.278829 0.871742 0.120609
-97.937632 62.203281 18.827905 173.555112 -49.387786 -0.983722 4.620504 26.712621 1.260666 0.683264 4.540960 0.211197 1.097906 7.187182 0.364861 3.595594 21.656882 1.596272 0.658062 14.952758 3.898835 -0.208918 -7.938854 7.036663 5.796131 4.426047 4.754680 -8.172320 -6.249683 -13.440203 -92.959679 -60.328428 129.958632 0.569194 1.492747 -3.386247 -9.022598 3.382987 -0.906465 1.638924 -8.076042 14.110802 91.274191 -66.011207 -118.685722 14.160254 -2.999867 -4.442217 2.430039 -17.756314 -4.269753 -2.175724 59.651414 -5.407704 1.965069 -4.502128 10.068336 0.389102 -0.629074 0.193621 -3.810763 -13.773027 3.985078 31.946559 74.887552 34.704023 1.622107 -11.577448 -6.099672 0.292745 0.871356 0.125626
-97.937364 62.201973 18.827121 173.553570 -49.399616 -0.982318 4.624440 26.716431 1.265020 0.686681 4.533399 0.214256 1.099451 7.187612 0.366027 3.605972 21.658363 1.603969 0.643855 14.973425 3.890677 -0.165663 -7.838896 6.979805 5.798081 4.413191 4.759338 -8.165631 -6.250556 -13.436061 -92.947883 -60.300546 130.007161 0.587529 1.518391 -3.430727 -9.037920 3.382830 -0.906362 1.633610 -8.091920 14.118333 91.237422 -66.013365 -118.646986 14.160139 -3.006001 -4.436824 2.436518 -17.742600 -4.268610 -2.152590 59.653985 -5.385000 1.957189 -4.522514 10.063193 0.384790 -0.620712 0.194316 -3.813010 -13.762894 3.980656 31.957548 74.888618 34.716092 1.624160 -11.576265 -6.097564 0.300773 0.869927 0.121352
-97.937641 62.202443 18.825052 173.552037 -49.425874 -0.978226 4.628447 26.728174 1.269364 0.688090 4.535114 0.215389 1.101604 7.190203 0.367871 3.613337 21.660523 1.607734 0.652402 15.014282 3.873945 -0.165736 -7.820379 6.968780 5.804667 4.398677 4.766523 -8.178940 -6.238833 -13.441700 -92.941647 -60.295847 130.015071 0.587284 1.516565 -3.422518 -9.050200 3.379643 -0.901745 1.628847 -8.111878 14.126211 91.193540 -66.015719 -118.601444 14.158781 -3.011516 -4.425613 2.447522 -17.712121 -4.262688 -2.109564 59.656984 -5.357584 1.934894 -4.541566 10.074816 0.376481 -0.616657 0.189524 -3.817274 -13.735628 3.970097 31.972481 74.885953 34.728740 1.636794 -11.572526 -6.094790 0.307904 0.867775 0.115024
-97.938877 62.201632 18.824232 173.532994 -49.442657 -0.957135 4.646798 26.733443 1.271283 0.694020 4.527290 0.219183 1.098354 7.200648 0.366855 3.614889 21.660695 1.611639 0.683916 15.081585 3.835183 -0.154361 -7.758782 6.934634 5.824714 4.382395 4.780915 -8.170862 -6.246779 -13.446010 -92.915878 -60.303636 129.969693 0.578375 1.509699 -3.410480 -9.057212 3.370847 -0.886624 1.620421 -8.120261 14.126958 91.162332 -66.015338 -118.557410 14.161422 -3.018837 -4.419303 2.471525 -17.695555 -4.262896 -2.102260 59.661650 -5.356442 1.926635 -4.558909 10.069858 0.374412 -0.620510 0.191228 -3.818386 -13.714856 3.947750 32.032946 74.875103 34.786788 1.651025 -11.581624 -6.097611 0.279392 0.875356 0.107504
-97.938433 62.199575 18.824963 173.523933 -49.449392 -0.955572 4.661290 26.726856 1.283694 0.690100 4.537063 0.216915 1.104822 7.193021 0.370415 3.614903 21.664533 1.614406 0.694828 15.114109 3.815176 -0.118343 -7.670826 6.872308 5.826544 4.382206 4.783509 -8.122997 -6.283886 -13.420076 -92.863910 -60.286785 129.930472 0.595313 1.525481 -3.440437 -9.053613 3.360551 -0.861731 1.612228 -8.124724 14.120619 91.137326 -66.015405 -118.526557 14.159430 -3.028739 -4.418846 2.486310 -17.692003 -4.250090 -2.104904 59.666588 -5.363880 1.924546 -4.562271 10.073052 0.366015 -0.623664 0.192780 -3.817339 -13.707897 3.946549 32.039850 74.876118 34.804490 1.644556 -11.590060 -6.108491 0.275548 0.879290 0.111607
-97.936601 62.198782 18.825004 173.513825 -49.465970 -0.961860 4.679877 26.730288 1.307546 0.690828 4.537853 0.217472 1.105801 7.194239 0.371451 3.613761 21.665871 1.621436 0.703329 15.145764 3.790330 -0.091734 -7.613377 6.821672 5.846790 4.376554 4.785575 -8.132289 -6.283312 -13.418689 -92.846247 -60.277511 129.922071 0.595399 1.527038 -3.441575 -9.056911 3.361849 -0.862905 1.616605 -8.148350 14.147428 91.090982 -66.000154 -118.482619 14.145748 -3.029290 -4.418135 2.498257 -17.677434 -4.226347 -2.116317 59.668882 -5.379799 1.927594 -4.562121 10.074982 0.356939 -0.629735 0.195176 -3.817274 -13.690443 3.953147 32.042982 74.882653 34.821001 1.646176 -11.600113 -6.123569 0.285863 0.880742 0.116690
-97.936070 62.198518 18.824670 173.502485 -49.486316 -0.960173 4.690418 26.730652 1.333237 0.690388 4.539085 0.218901 1.108759 7.203074 0.362877 3.608730 21.666687 1.629228 0.703733 15.166053 3.767815 -0.057314 -7.552170 6.758946 5.869939 4.372099 4.785327 -8.119989 -6.293659 -13.408503 -92.826476 -60.299015 129.871464 0.595524 1.527482 -3.441458 -9.055855 3.361803 -0.859715 1.616763 -8.148937 14.141404 91.091767 -66.008427 -118.487685 14.153777 -3.031940 -4.411897 2.509957 -17.658703 -4.207946 -2.130505 59.671424 -5.402370 1.925416 -4.561378 10.082371 0.359459 -0.637751 0.191212 -3.819922 -13.668787 3.952008 32.060337 74.882577 34.841105 1.665372 -11.599760 -6.141786 0.300340 0.878626 0.125226
-97.936853 62.197051 18.825442 173.497413 -49.496900 -0.957399 4.691936 26.735193 1.339282 0.690032 4.539648 0.219465 1.106592 7.201070 0.368634 3.608129 21.670459 1.629941 0.705615 15.181088 3.748235 -0.023233 -7.497646 6.694707 5.893320 4.366205 4.786301 -8.081188 -6.310133 -13.375824 -92.796589 -60.319057 129.827320 0.600030 1.528082 -3.448392 -9.046559 3.362742 -0.855989 1.609399 -8.149182 14.129067 91.107851 -66.042630 -118.489602 14.169589 -3.039010 -4.426441 2.519520 -17.647654 -4.201266 -2.135825 59.670607 -5.412148 1.926144 -4.567126 10.089619 0.350728 -0.637613 0.184104 -3.828305 -13.656891 3.949321 32.058529 74.882372 34.841412 1.658106 -11.604025 -6.149922 0.312614 0.878131 0.130280
-97.936928 62.195832 18.826359 173.491040 -49.509010 -0.959433 4.699357 26.744730 1.349007 0.689948 4.539847 0.219670 1.104541 7.197246 0.374655 3.610247 21.674467 1.632122 0.726933 15.222704 3.711184 -0.031086 -7.507683 6.693411 5.948435 4.354201 4.812609 -8.093315 -6.316884 -13.375537 -92.739821 -60.284205 129.821841 0.635221 1.536635 -3.494115 -9.043779 3.360833 -0.848135 1.616392 -8.153268 14.127344 91.095226 -66.040283 -118.484729 14.166385 -3.037772 -4.429161 2.528617 -17.634384 -4.186301 -2.143251 59.667895 -5.426378 1.931863 -4.572692 10.089543 0.338280 -0.637294 0.185963 -3.846765 -13.642809 3.945659 32.105142 74.874928 34.874433 1.713190 -11.603554 -6.169472 0.322758 0.884876 0.137085
-97.937007 62.194194 18.827890 173.488138 -49.517485 -0.966169 4.704894 26.744551 1.366435 0.690023 4.541584 0.220661 1.101829 7.198960 0.386739 3.605632 21.680049 1.614114 0.738490 15.243224 3.695801 -0.026300 -7.499058 6.673178 5.976714 4.344927 4.830475 -8.091283 -6.320126 -13.368682 -92.706268 -60.277935 129.802212 0.595474 1.528654 -3.451954 -9.043870 3.360571 -0.831365 1.628217 -8.154520 14.123398 91.082511 -66.033648 -118.483913 14.166989 -3.044023 -4.423922 2.536921 -17.625262 -4.169567 -2.149318 59.665550 -5.438216 1.934061 -4.576028 10.092853 0.333648 -0.637558 0.185575 -3.854124 -13.634167 3.947811 32.116099 74.872860 34.883487 1.749249 -11.605496 -6.186806 0.343648 0.891544 0.146986
-97.939511 62.192524 18.829318 173.480587 -49.525913 -0.956532 4.702511 26.748608 1.367886 0.690242 4.543075 0.221861 1.103275 7.202333 0.382519 3.607708 21.681112 1.627382 0.743914 15.262658 3.664685 0.028428 -7.427546 6.566561 6.002475 4.335565 4.832969 -8.092355 -6.318697 -13.361210 -92.682663 -60.272801 129.790418 0.604403 1.532157 -3.456187 -9.046266 3.357343 -0.843331 1.649227 -8.149866 14.135751 91.071029 -66.023847 -118.494080 14.158971 -3.045594 -4.416646 2.552302 -17.617871 -4.170342 -2.157148 59.666850 -5.445905 1.930640 -4.580544 10.091701 0.335215 -0.636245 0.185887 -3.874881 -13.624718 3.928087 32.158215 74.864162 34.918352 1.774671 -11.601952 -6.199574 0.338322 0.894027 0.144080
-97.942112 62.191430 18.830411 173.466156 -49.538640 -0.942208 4.704270 26.756139 1.368894 0.686644 4.542491 0.230818 1.108286 7.209180 0.370515 3.608802 21.686150 1.645300 0.749077 15.275364 3.628663 0.062989 -7.385800 6.497159 6.028160 4.324922 4.829307 -8.106118 -6.316188 -13.366007 -92.658889 -60.257188 129.790831 0.628242 1.537749 -3.479189 -9.048639 3.352441 -0.849768 1.656323 -8.151162 14.125677 91.062222 -66.027273 -118.488025 14.156989 -3.039613 -4.418224 2.572731 -17.606669 -4.168717 -2.167791 59.668674 -5.458594 1.925723 -4.583404 10.092706 0.338736 -0.636129 0.186698 -3.875881 -13.611373 3.917428 32.200072 74.858196 34.961120 1.742151 -11.608528 -6.194825 0.324606 0.894472 0.136061
